<svg id="Capa_1" data-name="Capa 1" xmlns="http://www.w3.org/2000/svg" viewBox="0 0 25 23.22"><defs><style>.cls-1{fill:#99c;}</style></defs><g id="Capa_2" data-name="Capa 2"><g id="Capa_1-2" data-name="Capa 1-2"><path class="cls-1" d="M12.51,5.66a6.12,6.12,0,0,1,1.7-2.9A6.3,6.3,0,0,1,24.69,5.22a8.22,8.22,0,0,1,.23,3.45,16.88,16.88,0,0,1-4.24,9.11,25.83,25.83,0,0,1-7.21,5.9c-1.07.58-.87.57-1.91,0a26,26,0,0,1-7-5.66A18.37,18.37,0,0,1,.65,11.36,13.72,13.72,0,0,1,0,7,6.21,6.21,0,0,1,6.93.94a6.32,6.32,0,0,1,5.52,4.58S12.47,5.57,12.51,5.66Zm-.9,11.27c-1.47.23-2.75,1.7-2.67,2.69H16a1.91,1.91,0,0,0-.43-1.27,3.43,3.43,0,0,0-2.22-1.41c0-1.49-.05-3,0-4.45a3.2,3.2,0,0,1,1.05-2.22,1.58,1.58,0,0,1,1-.44,9.8,9.8,0,0,0-.88,2.52,3.4,3.4,0,0,0,2.75-2,8.93,8.93,0,0,0,.45-1.85,11.66,11.66,0,0,0,.07-1.34,7.16,7.16,0,0,0-3.35.79,3.72,3.72,0,0,0-1.93,2.37l-.1.39A5.85,5.85,0,0,0,7.12,8c0,.53,0,1,.09,1.49a8,8,0,0,0,.2,1.09,3.48,3.48,0,0,0,2.92,2.54l.09-.07-.85-2.36a1.66,1.66,0,0,1,.95.43,3.1,3.1,0,0,1,.79,1.2A4,4,0,0,1,11.6,14C11.59,15,11.61,16,11.61,16.93Z" transform="translate(0 -0.89)"/></g></g></svg>