<svg id="Capa_1" data-name="Capa 1" xmlns="http://www.w3.org/2000/svg" viewBox="0 0 19.55 25"><defs><style>.cls-1{fill:#99c;}</style></defs><g id="Capa_2" data-name="Capa 2"><g id="Capa_1-2" data-name="Capa 1-2"><path class="cls-1" d="M21.48,13.18A1.9,1.9,0,0,1,20.4,15a2.21,2.21,0,0,0-1.13,1.45A2,2,0,0,1,17.43,18l-.2,0a1.68,1.68,0,0,0-1.38.69,2.43,2.43,0,0,1-1,.74,1.82,1.82,0,0,1-1.41-.11,2.23,2.23,0,0,0-1.84,0,1.84,1.84,0,0,1-2.36-.55A2.15,2.15,0,0,0,7.65,18a2,2,0,0,1-2-1.65,1.9,1.9,0,0,0-1-1.28,2,2,0,0,1-1.13-2.4,1.92,1.92,0,0,0-.34-1.54,2.12,2.12,0,0,1,0-2.75,1.9,1.9,0,0,0,.33-1.51A2.06,2.06,0,0,1,4.71,4.46a1.91,1.91,0,0,0,1-1.23A2,2,0,0,1,7.74,1.54,1.93,1.93,0,0,0,9.15.84,2,2,0,0,1,11.7.24a1.93,1.93,0,0,0,1.61,0,2,2,0,0,1,2.53.6,2,2,0,0,0,1.45.71,2,2,0,0,1,2,1.58,2.2,2.2,0,0,0,1.11,1.4,1.94,1.94,0,0,1,1,2.28,2.24,2.24,0,0,0,.37,1.68,2,2,0,0,1,0,2.59,2,2,0,0,0-.37,1.7A1.9,1.9,0,0,1,21.48,13.18Zm-9,3.13A6.55,6.55,0,0,0,19,9.76h0a6.52,6.52,0,0,0-13,0v.05A6.53,6.53,0,0,0,12.49,16.31Z" transform="translate(-2.72)"/><path class="cls-1" d="M5,17.53a3.07,3.07,0,0,0,2.71,1.58.87.87,0,0,1,.66.37,3.36,3.36,0,0,0,1.42,1,8.46,8.46,0,0,0,.9.23,1.31,1.31,0,0,0-.09.17c-.67,1.16-1.34,2.3-2,3.46a1.12,1.12,0,0,1-2.09-.16c-.2-.54-.42-1.08-.64-1.65-.54.09-1.06.17-1.59.24a2.33,2.33,0,0,1-.53.06,1.08,1.08,0,0,1-.87-1.63c.42-.75.85-1.49,1.28-2.23Z" transform="translate(-2.72)"/><path class="cls-1" d="M19.13,22.52c-.23.6-.45,1.18-.68,1.75a1.09,1.09,0,0,1-1.9.27c-.76-1.27-1.49-2.56-2.24-3.84.32-.08.63-.12.92-.22a3.21,3.21,0,0,0,1.39-1,1.06,1.06,0,0,1,.79-.39A3,3,0,0,0,20,17.54l.11.15,2,3.43A1.07,1.07,0,0,1,22,22.43a1,1,0,0,1-1,.38Z" transform="translate(-2.72)"/><path class="cls-1" d="M12.48,15.21A5.44,5.44,0,0,1,7.06,9.77v0a5.42,5.42,0,1,1,5.42,5.49Zm-.07-4.65L11.32,9.47a.55.55,0,1,0-.76.77L12,11.69c.39.39.72.35,1-.1.68-1,1.35-2,2-3a1,1,0,0,0,.1-.17.54.54,0,0,0-.88-.6L14.09,8l-1.68,2.52Z" transform="translate(-2.72)"/></g></g></svg>