<svg id="Capa_1" data-name="Capa 1" xmlns="http://www.w3.org/2000/svg" viewBox="0 0 21.87 25"><defs><style>.cls-1{fill:#99c;}</style></defs><path class="cls-1" d="M7.81,25a3.13,3.13,0,1,1,3.13-3.12A3.12,3.12,0,0,1,7.81,25Z" transform="translate(-1.56)"/><path class="cls-1" d="M15,9.38H13.13a.24.24,0,0,0-.24.24v2.64a.24.24,0,0,0,.24.24H15a.24.24,0,0,0,.24-.24V9.62A.24.24,0,0,0,15,9.38Z" transform="translate(-1.56)"/><path class="cls-1" d="M22.63,21.09H21.09V10.16a.77.77,0,0,0-.78-.78H17a.24.24,0,0,0-.24.24v3.66a.78.78,0,0,1-.78.78H12.11a.78.78,0,0,1-.78-.78V9.62a.24.24,0,0,0-.25-.24H8.59V3.52A3.52,3.52,0,0,0,5.08,0,3.53,3.53,0,0,0,1.56,3.5a.81.81,0,0,0,.76.8.79.79,0,0,0,.8-.78A2,2,0,0,1,6.46,2.13,1.94,1.94,0,0,1,7,3.52V17a.25.25,0,0,0,.27.25,4.36,4.36,0,0,1,.51,0,4.69,4.69,0,0,1,4.69,4.69,4.36,4.36,0,0,1,0,.51.25.25,0,0,0,.24.27h10a.78.78,0,0,0,.78-.82A.81.81,0,0,0,22.63,21.09Z" transform="translate(-1.56)"/></svg>