<svg height="512pt" viewBox="-31 0 512 512" width="512pt" xmlns="http://www.w3.org/2000/svg"><path d="m375 352.210938 19.394531 19.394531 21.210938-21.210938-55.605469-55.605469-55.605469 55.605469 21.210938 21.210938 19.394531-19.394531v98.789062h-120v30h150zm0 0"/><path d="m225 30h-150v128.789062l-19.394531-19.394531-21.210938 21.210938 55.605469 55.605469 55.605469-55.605469-21.210938-21.210938-19.394531 19.394531v-98.789062h120zm0 0"/><path d="m0 481v31h180v-31c0-49.628906-40.371094-90-90-90s-90 40.371094-90 90zm0 0"/><path d="m135 316c0 24.851562-20.148438 45-45 45s-45-20.148438-45-45 20.148438-45 45-45 45 20.148438 45 45zm0 0"/><path d="m450 210c0-49.628906-40.371094-90-90-90s-90 40.371094-90 90v31h180zm0 0"/><path d="m405 45c0 24.851562-20.148438 45-45 45s-45-20.148438-45-45 20.148438-45 45-45 45 20.148438 45 45zm0 0"/></svg>