<svg id="Capa_1" data-name="Capa 1" xmlns="http://www.w3.org/2000/svg" viewBox="0 0 25 25"><defs><style>.cls-1{fill:#99c;}</style></defs><path class="cls-1" d="M12.5,0A12.5,12.5,0,1,0,25,12.5,12.5,12.5,0,0,0,12.5,0Zm3.59,17.43A4,4,0,0,1,14,18.77a.57.57,0,0,0-.51.66c0,.37,0,.73,0,1.1a.46.46,0,0,1-.5.52H11.82a.48.48,0,0,1-.52-.54V19.7c0-.6,0-.62-.6-.71a7.47,7.47,0,0,1-2.12-.61c-.52-.25-.58-.38-.43-.94s.22-.82.35-1.23.18-.43.34-.43a.91.91,0,0,1,.37.13,6.94,6.94,0,0,0,2.36.71l.42,0a2.74,2.74,0,0,0,1.12-.23,1.19,1.19,0,0,0,.29-2.1,3.71,3.71,0,0,0-.88-.52,19.26,19.26,0,0,1-2.41-1.08A3.41,3.41,0,0,1,8.19,9.45a3.59,3.59,0,0,1,2.62-3.32c.65-.23.65-.22.65-.89,0-.23,0-.46,0-.69,0-.5.09-.59.6-.6h.58c1,0,1,0,1,1.07,0,.76,0,.76.76.88A6.37,6.37,0,0,1,16,6.4a.48.48,0,0,1,.32.65c-.14.46-.26.93-.41,1.39-.09.27-.18.4-.34.4a.7.7,0,0,1-.35-.11,5.26,5.26,0,0,0-2.33-.53h-.32a2.35,2.35,0,0,0-.7.14,1,1,0,0,0-.25,1.78,4.67,4.67,0,0,0,1.15.65,19.61,19.61,0,0,1,2.09.94A3.77,3.77,0,0,1,16.09,17.43Z"/></svg>