<svg id="Capa_1" data-name="Capa 1" xmlns="http://www.w3.org/2000/svg" viewBox="0 0 24.96 24.95"><defs><style>.cls-1{fill:#99c;}</style></defs><g id="Capa_2" data-name="Capa 2"><g id="Capa_1-2" data-name="Capa 1-2"><path class="cls-1" d="M11.7,0h1.51l.19,0a12.37,12.37,0,0,1,7.32,3.07L14.38,9.45l-1.06-.62a.32.32,0,0,1-.11-.24c0-.58,0-1.15,0-1.73a.28.28,0,0,1,.18-.28l2.3-1.32.22-.14-.72-1.25L15,4c-.77.44-1.54.88-2.3,1.33a.29.29,0,0,1-.35,0l-1.9-1.1-.62-.36L9.05,5.12l.25.15c.73.42,1.46.85,2.19,1.26a.4.4,0,0,1,.26.43c0,.53,0,1.06,0,1.59a.34.34,0,0,1-.2.34l-3.31,1.9a.4.4,0,0,0-.24.4c0,1.48,0,3,0,4.45a.54.54,0,0,1-.18.45l-4.5,4.49c-.05.06-.11.11-.17.17a12.2,12.2,0,0,1-3-6.08c-.08-.49-.13-1-.2-1.46V11.7c.08-.56.14-1.11.24-1.66A12.46,12.46,0,0,1,10.3.2C10.76.12,11.23.07,11.7,0Z"/><path class="cls-1" d="M4.22,21.81l5-5,.29.16c.67.39,1.34.78,2,1.16a.32.32,0,0,1,.2.34c0,1,0,1.93,0,2.92h1.46V18.47a.32.32,0,0,1,.19-.34l3.36-1.93a.34.34,0,0,0,.19-.35v-4.7a.32.32,0,0,0-.2-.34c-.32-.17-.64-.37-.94-.54l6-6A12.47,12.47,0,0,1,4.22,21.81Z"/><path class="cls-1" d="M15.48,13.52c0,.5,0,1,0,1.51a.32.32,0,0,1-.18.31l-2.67,1.54a.27.27,0,0,1-.33,0L9.65,15.34A.32.32,0,0,1,9.46,15c0-1,0-2,0-3a.31.31,0,0,1,.18-.31l2.68-1.55a.27.27,0,0,1,.32,0c.88.52,1.77,1,2.66,1.53a.32.32,0,0,1,.18.33Z"/></g></g></svg>