<svg id="Capa_1" data-name="Capa 1" xmlns="http://www.w3.org/2000/svg" viewBox="0 0 24.61 24.61"><defs><style>.cls-1{fill:#99c;}</style></defs><path class="cls-1" d="M15.23.2H9.77A6.45,6.45,0,0,0,3.32,6.64V19.92A3.72,3.72,0,0,0,7,23.63h3.42a1.76,1.76,0,0,0,.64.85,1.79,1.79,0,0,0,1,.32h1.56a1.72,1.72,0,0,0,1.24-.51,1.75,1.75,0,0,0,0-2.49,1.72,1.72,0,0,0-1.24-.51H12.11a1.74,1.74,0,0,0-1.66,1.17H7a2.54,2.54,0,0,1-2.54-2.54V18.16h.2a1.76,1.76,0,0,0,1.76-1.75V10.94A1.76,1.76,0,0,0,4.69,9.18h-.2V6.64A5.27,5.27,0,0,1,9.77,1.37h5.46a5.27,5.27,0,0,1,5.28,5.27V9.18h-.2a1.76,1.76,0,0,0-1.76,1.76v5.47a1.76,1.76,0,0,0,1.76,1.75h1.37V6.64A6.45,6.45,0,0,0,15.23.2Z" transform="translate(-0.2 -0.2)"/><path class="cls-1" d="M22.07,9.81v7.73a4.1,4.1,0,0,0,0-7.73Z" transform="translate(-0.2 -0.2)"/><path class="cls-1" d="M.2,13.67A4.09,4.09,0,0,0,1,16a4.16,4.16,0,0,0,2,1.5V9.81A4.1,4.1,0,0,0,.2,13.67Z" transform="translate(-0.2 -0.2)"/><path class="cls-1" d="M17.12,10.45a.55.55,0,0,0-.32-.1.51.51,0,0,0-.32.1l-1.89,1.23L13,9.07a.6.6,0,0,0-.21-.21.64.64,0,0,0-.58,0,.6.6,0,0,0-.21.21l-1.59,2.61L8.52,10.45a.51.51,0,0,0-.32-.1.55.55,0,0,0-.32.1.57.57,0,0,0-.21.25.54.54,0,0,0,0,.33l.78,4.69a.55.55,0,0,0,.2.35.57.57,0,0,0,.37.14h7a.57.57,0,0,0,.37-.14.55.55,0,0,0,.2-.35L17.37,11a.54.54,0,0,0,0-.33A.57.57,0,0,0,17.12,10.45Z" transform="translate(-0.2 -0.2)"/><path class="cls-1" d="M12.5,8.59A.59.59,0,1,0,11.91,8,.59.59,0,0,0,12.5,8.59Z" transform="translate(-0.2 -0.2)"/><path class="cls-1" d="M17.19,10a.59.59,0,1,0-.59-.59A.58.58,0,0,0,17.19,10Z" transform="translate(-0.2 -0.2)"/><path class="cls-1" d="M7.81,10a.59.59,0,1,0-.58-.59A.58.58,0,0,0,7.81,10Z" transform="translate(-0.2 -0.2)"/></svg>