<svg id="Capa_1" data-name="Capa 1" xmlns="http://www.w3.org/2000/svg" viewBox="0 0 23.33 25"><defs><style>.cls-1{fill:#99c;}</style></defs><g id="Capa_2" data-name="Capa 2"><g id="Capa_1-2" data-name="Capa 1-2"><path class="cls-1" d="M8.4,2.76c-1-.09-1-.2-1-1.14,0-.3,0-.61,0-.91A.67.67,0,0,1,8.06,0H17a.68.68,0,0,1,.7.7c0,.41,0,.82,0,1.23a.72.72,0,0,1-.81.81h-.24v.31c0,2.35,0,4.69,0,7a.9.9,0,0,0,.16.5q3.38,4.85,6.78,9.7A2.93,2.93,0,0,1,23,24.45a2.81,2.81,0,0,1-1.67.55H3.75a2.75,2.75,0,0,1-2.54-1.54,2.77,2.77,0,0,1,.14-3c1.13-1.67,2.3-3.31,3.46-5s2.31-3.29,3.45-4.94a.73.73,0,0,0,.14-.37c0-2.43,0-4.86,0-7.29A.74.74,0,0,0,8.4,2.76Zm1,0v.36c0,2.41,0,4.83,0,7.24a1.18,1.18,0,0,1-.19.6c-.56.83-1.14,1.64-1.71,2.45l-.14.24H17.65l-.17-.26c-.56-.8-1.13-1.59-1.67-2.4a1.29,1.29,0,0,1-.21-.66q0-3.61,0-7.23V2.75ZM17.56,16.6a1.14,1.14,0,1,0-1.13,1.16,1.14,1.14,0,0,0,1.13-1.16Zm-3.13,4.08a.76.76,0,0,0,.74-.76.75.75,0,1,0-.74.76Zm-5.7-4.81A.76.76,0,0,0,8,15.11a.75.75,0,0,0,0,1.5H8A.75.75,0,0,0,8.73,15.87Zm2.85,3.32a.44.44,0,1,0-.88,0,.45.45,0,0,0,.43.45A.44.44,0,0,0,11.58,19.19ZM9.69,15.12a.34.34,0,0,0,.67,0,.34.34,0,0,0-.33-.34h0a.34.34,0,0,0-.32.33Zm-.35,6.09a.33.33,0,1,0-.66-.11v0a.32.32,0,0,0,.28.35H9a.32.32,0,0,0,.35-.25v0Z" transform="translate(-0.84)"/></g></g></svg>